<mxfile host="app.diagrams.net" modified="2023-02-13T14:57:57.833Z" agent="5.0 (Macintosh; Intel Mac OS X 10_15_7) AppleWebKit/537.36 (KHTML, like Gecko) Chrome/108.0.0.0 Safari/537.36" etag="2zN7tdjG6MuDmO_DQW3G" version="20.7.2" type="github">
  <diagram id="J6G15a_BRsCCqsACRKnu" name="第 1 页">
    <mxGraphModel dx="2069" dy="795" grid="1" gridSize="10" guides="1" tooltips="1" connect="1" arrows="1" fold="1" page="1" pageScale="1" pageWidth="827" pageHeight="1169" math="0" shadow="0">
      <root>
        <mxCell id="0" />
        <mxCell id="1" parent="0" />
        <mxCell id="OaOdMLqsqsNI3HUmongC-15" value="" style="rounded=0;whiteSpace=wrap;html=1;dashed=1;fillColor=#A9C4EB;" vertex="1" parent="1">
          <mxGeometry x="150" y="275" width="960" height="130" as="geometry" />
        </mxCell>
        <mxCell id="OaOdMLqsqsNI3HUmongC-6" value="" style="rounded=0;whiteSpace=wrap;html=1;dashed=1;fillColor=#B9E0A5;" vertex="1" parent="1">
          <mxGeometry x="150" y="455" width="960" height="130" as="geometry" />
        </mxCell>
        <mxCell id="BNRYyk6rxKsf39EG5g5h-1" value="&lt;font style=&quot;font-size: 24px;&quot;&gt;CodeReive&lt;/font&gt;" style="rounded=1;whiteSpace=wrap;html=1;sketch=1;curveFitting=1;jiggle=2;" parent="1" vertex="1">
          <mxGeometry x="170" y="475" width="440" height="50" as="geometry" />
        </mxCell>
        <mxCell id="BNRYyk6rxKsf39EG5g5h-3" value="人工" style="rounded=0;whiteSpace=wrap;html=1;sketch=1;fontSize=24;dashed=1;" parent="1" vertex="1">
          <mxGeometry x="170" y="525" width="80" height="40" as="geometry" />
        </mxCell>
        <mxCell id="BNRYyk6rxKsf39EG5g5h-4" value="ChatGPT" style="rounded=0;whiteSpace=wrap;html=1;sketch=1;fontSize=24;dashed=1;" parent="1" vertex="1">
          <mxGeometry x="250" y="525" width="120" height="40" as="geometry" />
        </mxCell>
        <mxCell id="BNRYyk6rxKsf39EG5g5h-5" value="量化" style="rounded=0;whiteSpace=wrap;html=1;sketch=1;fontSize=24;dashed=1;" parent="1" vertex="1">
          <mxGeometry x="370" y="525" width="120" height="40" as="geometry" />
        </mxCell>
        <mxCell id="BNRYyk6rxKsf39EG5g5h-6" value="复盘会" style="rounded=0;whiteSpace=wrap;html=1;sketch=1;fontSize=24;dashed=1;" parent="1" vertex="1">
          <mxGeometry x="490" y="525" width="120" height="40" as="geometry" />
        </mxCell>
        <mxCell id="BNRYyk6rxKsf39EG5g5h-7" value="&lt;font style=&quot;font-size: 24px;&quot;&gt;自动化测试&lt;/font&gt;" style="rounded=1;whiteSpace=wrap;html=1;sketch=1;curveFitting=1;jiggle=2;" parent="1" vertex="1">
          <mxGeometry x="650" y="475" width="440" height="50" as="geometry" />
        </mxCell>
        <mxCell id="OaOdMLqsqsNI3HUmongC-1" value="性能统计" style="rounded=0;whiteSpace=wrap;html=1;sketch=1;fontSize=24;dashed=1;" vertex="1" parent="1">
          <mxGeometry x="650" y="525" width="140" height="40" as="geometry" />
        </mxCell>
        <mxCell id="OaOdMLqsqsNI3HUmongC-3" value="录制回放" style="rounded=0;whiteSpace=wrap;html=1;sketch=1;fontSize=24;dashed=1;" vertex="1" parent="1">
          <mxGeometry x="790" y="525" width="130" height="40" as="geometry" />
        </mxCell>
        <mxCell id="OaOdMLqsqsNI3HUmongC-4" value="研发流程改造" style="rounded=0;whiteSpace=wrap;html=1;sketch=1;fontSize=24;dashed=1;" vertex="1" parent="1">
          <mxGeometry x="920" y="525" width="170" height="40" as="geometry" />
        </mxCell>
        <mxCell id="OaOdMLqsqsNI3HUmongC-5" value="&lt;font style=&quot;font-size: 24px;&quot;&gt;需求轮岗&lt;/font&gt;" style="rounded=1;whiteSpace=wrap;html=1;sketch=1;curveFitting=1;jiggle=2;" vertex="1" parent="1">
          <mxGeometry x="170" y="295" width="460" height="50" as="geometry" />
        </mxCell>
        <mxCell id="OaOdMLqsqsNI3HUmongC-7" value="移动端之间" style="rounded=0;whiteSpace=wrap;html=1;sketch=1;fontSize=24;dashed=1;" vertex="1" parent="1">
          <mxGeometry x="170" y="345" width="150" height="40" as="geometry" />
        </mxCell>
        <mxCell id="OaOdMLqsqsNI3HUmongC-8" value="移动端和前端" style="rounded=0;whiteSpace=wrap;html=1;sketch=1;fontSize=24;dashed=1;" vertex="1" parent="1">
          <mxGeometry x="315" y="345" width="155" height="40" as="geometry" />
        </mxCell>
        <mxCell id="OaOdMLqsqsNI3HUmongC-9" value="前端和后台" style="rounded=0;whiteSpace=wrap;html=1;sketch=1;fontSize=24;dashed=1;" vertex="1" parent="1">
          <mxGeometry x="470" y="345" width="155" height="40" as="geometry" />
        </mxCell>
        <mxCell id="OaOdMLqsqsNI3HUmongC-10" value="&lt;font style=&quot;font-size: 24px;&quot;&gt;多维度培养&lt;/font&gt;" style="rounded=1;whiteSpace=wrap;html=1;sketch=1;curveFitting=1;jiggle=2;" vertex="1" parent="1">
          <mxGeometry x="650" y="295" width="430" height="50" as="geometry" />
        </mxCell>
        <mxCell id="OaOdMLqsqsNI3HUmongC-11" value="以老带新" style="rounded=0;whiteSpace=wrap;html=1;sketch=1;fontSize=24;dashed=1;" vertex="1" parent="1">
          <mxGeometry x="650" y="345" width="140" height="40" as="geometry" />
        </mxCell>
        <mxCell id="OaOdMLqsqsNI3HUmongC-12" value="分享会" style="rounded=0;whiteSpace=wrap;html=1;sketch=1;fontSize=24;dashed=1;" vertex="1" parent="1">
          <mxGeometry x="790" y="345" width="140" height="40" as="geometry" />
        </mxCell>
        <mxCell id="OaOdMLqsqsNI3HUmongC-13" value="owner意识" style="rounded=0;whiteSpace=wrap;html=1;sketch=1;fontSize=24;dashed=1;" vertex="1" parent="1">
          <mxGeometry x="930" y="345" width="150" height="40" as="geometry" />
        </mxCell>
        <mxCell id="OaOdMLqsqsNI3HUmongC-16" value="" style="rounded=0;whiteSpace=wrap;html=1;dashed=1;fillColor=#C3ABD0;" vertex="1" parent="1">
          <mxGeometry x="150" y="75" width="960" height="160" as="geometry" />
        </mxCell>
        <mxCell id="OaOdMLqsqsNI3HUmongC-17" value="&lt;span style=&quot;font-size: 24px;&quot;&gt;历史包袱清理&lt;/span&gt;" style="rounded=1;whiteSpace=wrap;html=1;sketch=1;curveFitting=1;jiggle=2;" vertex="1" parent="1">
          <mxGeometry x="180" y="115" width="430" height="50" as="geometry" />
        </mxCell>
        <mxCell id="OaOdMLqsqsNI3HUmongC-18" value="核心模块重构" style="rounded=0;whiteSpace=wrap;html=1;sketch=1;fontSize=24;dashed=1;" vertex="1" parent="1">
          <mxGeometry x="180" y="165" width="210" height="40" as="geometry" />
        </mxCell>
        <mxCell id="OaOdMLqsqsNI3HUmongC-20" value="跨平台迁移" style="rounded=0;whiteSpace=wrap;html=1;sketch=1;fontSize=24;dashed=1;" vertex="1" parent="1">
          <mxGeometry x="390" y="165" width="210" height="40" as="geometry" />
        </mxCell>
        <mxCell id="OaOdMLqsqsNI3HUmongC-22" value="&lt;span style=&quot;font-size: 24px;&quot;&gt;打造统一的跨端容器&lt;/span&gt;" style="rounded=1;whiteSpace=wrap;html=1;sketch=1;curveFitting=1;jiggle=2;" vertex="1" parent="1">
          <mxGeometry x="630" y="115" width="430" height="50" as="geometry" />
        </mxCell>
        <mxCell id="OaOdMLqsqsNI3HUmongC-25" value="研发质量保障" style="text;html=1;strokeColor=none;fillColor=none;align=center;verticalAlign=middle;whiteSpace=wrap;rounded=0;dashed=1;fontSize=32;" vertex="1" parent="1">
          <mxGeometry x="-90" y="505" width="210" height="30" as="geometry" />
        </mxCell>
        <mxCell id="OaOdMLqsqsNI3HUmongC-26" value="技术深广度培养" style="text;html=1;strokeColor=none;fillColor=none;align=center;verticalAlign=middle;whiteSpace=wrap;rounded=0;dashed=1;fontSize=32;" vertex="1" parent="1">
          <mxGeometry x="-110" y="325" width="230" height="30" as="geometry" />
        </mxCell>
        <mxCell id="OaOdMLqsqsNI3HUmongC-27" value="研发效率提升" style="text;html=1;strokeColor=none;fillColor=none;align=center;verticalAlign=middle;whiteSpace=wrap;rounded=0;dashed=1;fontSize=32;" vertex="1" parent="1">
          <mxGeometry x="-100" y="140" width="230" height="30" as="geometry" />
        </mxCell>
        <mxCell id="OaOdMLqsqsNI3HUmongC-28" value="" style="shape=curlyBracket;whiteSpace=wrap;html=1;rounded=1;labelPosition=left;verticalLabelPosition=middle;align=right;verticalAlign=middle;fontSize=32;fillColor=#C3ABD0;strokeWidth=2;strokeColor=#333333;" vertex="1" parent="1">
          <mxGeometry x="1130" y="295" width="20" height="120" as="geometry" />
        </mxCell>
      </root>
    </mxGraphModel>
  </diagram>
</mxfile>
